<svg width="134" height="44" viewBox="0 0 134 44" fill="none" xmlns="http://www.w3.org/2000/svg">
<path d="M0 14C0 9.58172 3.58172 6 8 6H24C28.4183 6 32 9.58172 32 14V30C32 34.4183 28.4183 38 24 38H8C3.58172 38 0 34.4183 0 30V14Z" fill="#0D1B2A"/>
<path d="M21 25.3334L24.3333 22L21 18.6667" stroke="#3B82F6" stroke-width="1.66667" stroke-linecap="round" stroke-linejoin="round"/>
<path d="M11 18.6667L7.66663 22L11 25.3334" stroke="#3B82F6" stroke-width="1.66667" stroke-linecap="round" stroke-linejoin="round"/>
<path d="M18.0833 15.3333L13.9166 28.6666" stroke="#3B82F6" stroke-width="1.66667" stroke-linecap="round" stroke-linejoin="round"/>
<path d="M53.6035 11.0176C53.6035 12.4889 53.3171 13.7454 52.7441 14.7871C52.1777 15.8288 51.39 16.6263 50.3809 17.1797C49.3783 17.7266 48.2194 18 46.9043 18H41.3379V4.24023H46.3184C48.6361 4.24023 50.4297 4.82617 51.6992 5.99805C52.9688 7.16341 53.6035 8.83659 53.6035 11.0176ZM50.7031 11.0176C50.7031 9.53971 50.319 8.41341 49.5508 7.63867C48.7826 6.85742 47.6855 6.4668 46.2598 6.4668H44.2188V15.7734H46.6602C47.487 15.7734 48.1999 15.5814 48.7988 15.1973C49.4043 14.8066 49.873 14.2565 50.2051 13.5469C50.5371 12.8372 50.7031 11.9941 50.7031 11.0176ZM66.4117 15.7734V18H55.191V4.24023H66.0113V6.4668H58.0719V9.92383H65.4156V12.1504H58.0719V15.7734H66.4117ZM79.7961 4.24023L74.7375 18H71.8176L66.7297 4.24023H69.7375L72.5695 13.0781C72.6607 13.3646 72.7648 13.7259 72.882 14.1621C73.0057 14.5918 73.1424 15.0964 73.2922 15.6758C73.507 14.862 73.66 14.2728 73.7512 13.9082C73.8488 13.5436 73.9302 13.2669 73.9953 13.0781L76.8176 4.24023H79.7961ZM87.0965 15.9297C88.8413 15.9297 90.049 15.0573 90.7195 13.3125L93.2293 14.2598C92.6889 15.5879 91.8947 16.5775 90.8465 17.2285C89.8048 17.873 88.5548 18.1953 87.0965 18.1953C85.6251 18.1953 84.3719 17.9154 83.3367 17.3555C82.3016 16.7891 81.5105 15.972 80.9637 14.9043C80.4233 13.8366 80.1531 12.554 80.1531 11.0566C80.1531 9.54622 80.4135 8.27018 80.9344 7.22852C81.4552 6.18685 82.2234 5.39583 83.2391 4.85547C84.2547 4.30859 85.4982 4.03516 86.9695 4.03516C88.5841 4.03516 89.8992 4.36068 90.9148 5.01172C91.9305 5.65625 92.6434 6.60677 93.0535 7.86328L90.5145 8.55664C90.2996 7.86654 89.8764 7.31966 89.2449 6.91602C88.6199 6.50586 87.881 6.30078 87.0281 6.30078C85.726 6.30078 84.7365 6.70443 84.0594 7.51172C83.3888 8.31901 83.0535 9.50065 83.0535 11.0566C83.0535 12.1113 83.2065 13 83.5125 13.7227C83.825 14.4453 84.2807 14.9954 84.8797 15.373C85.4852 15.7441 86.2241 15.9297 87.0965 15.9297ZM107.903 11.0566C107.903 12.4889 107.613 13.7422 107.034 14.8164C106.461 15.8841 105.65 16.7142 104.602 17.3066C103.56 17.8991 102.336 18.1953 100.93 18.1953C99.4913 18.1953 98.2543 17.9089 97.2191 17.3359C96.184 16.7565 95.3897 15.9329 94.8363 14.8652C94.2829 13.7975 94.0062 12.528 94.0062 11.0566C94.0062 9.58529 94.2797 8.32552 94.8266 7.27734C95.3799 6.22917 96.1742 5.42839 97.2094 4.875C98.251 4.3151 99.4978 4.03516 100.95 4.03516C102.408 4.03516 103.655 4.31836 104.69 4.88477C105.725 5.44466 106.519 6.2487 107.073 7.29688C107.626 8.34505 107.903 9.59831 107.903 11.0566ZM104.963 11.0566C104.963 9.57227 104.612 8.41016 103.909 7.57031C103.205 6.72396 102.219 6.30078 100.95 6.30078C99.6605 6.30078 98.6645 6.7207 97.9613 7.56055C97.2582 8.39388 96.9066 9.55924 96.9066 11.0566C96.9066 12.0592 97.0694 12.9251 97.3949 13.6543C97.7204 14.3835 98.1827 14.9466 98.7816 15.3438C99.3871 15.7344 100.103 15.9297 100.93 15.9297C102.219 15.9297 103.212 15.5065 103.909 14.6602C104.612 13.8138 104.963 12.6126 104.963 11.0566ZM112.049 9.88477V18H109.49V4.24023H112.781L118.865 14.9238C118.748 13.9342 118.689 13.0391 118.689 12.2383V4.24023H121.248V18H117.869L111.873 7.4043C111.932 7.91862 111.974 8.38411 112 8.80078C112.033 9.21094 112.049 9.57227 112.049 9.88477ZM126.224 12.9512V18H123.343V4.24023H133.49V6.4668H126.224V10.7246H133.265V12.9512H126.224Z" fill="#0D1B2A"/>
<path d="M50.3223 37.7441V40H40.6934V38.0957C40.9342 37.5684 41.2402 37.054 41.6113 36.5527C41.9824 36.0449 42.4251 35.5371 42.9395 35.0293C43.4603 34.515 44.0527 33.9876 44.7168 33.4473C45.1986 33.0566 45.6087 32.7018 45.9473 32.3828C46.2858 32.0573 46.5495 31.7676 46.7383 31.5137C46.9336 31.2598 47.0801 31.0091 47.1777 30.7617C47.2754 30.5078 47.3242 30.2604 47.3242 30.0195C47.3242 29.4206 47.1712 28.9714 46.8652 28.6719C46.5658 28.3724 46.1165 28.2227 45.5176 28.2227C44.9316 28.2227 44.4824 28.3822 44.1699 28.7012C43.8639 29.0137 43.6654 29.4857 43.5742 30.1172L40.8105 29.9609C40.9668 28.6849 41.4421 27.7116 42.2363 27.041C43.0371 26.3704 44.1243 26.0352 45.498 26.0352C46.9824 26.0352 48.1217 26.3737 48.916 27.0508C49.7103 27.7279 50.1074 28.6784 50.1074 29.9023C50.1074 30.5924 49.9642 31.2109 49.6777 31.7578C49.3913 32.3047 49.0267 32.8092 48.584 33.2715C48.2194 33.6686 47.806 34.0462 47.3438 34.4043C46.888 34.7624 46.4453 35.1107 46.0156 35.4492C45.5599 35.8138 45.1432 36.1816 44.7656 36.5527C44.3945 36.9238 44.1178 37.321 43.9355 37.7441H50.3223ZM60.8355 33.1152C60.8355 35.4395 60.4352 37.2005 59.6344 38.3984C58.8401 39.5964 57.6454 40.1953 56.0504 40.1953C54.4749 40.1953 53.2932 39.6061 52.5055 38.4277C51.7177 37.2428 51.3238 35.472 51.3238 33.1152C51.3238 30.6999 51.6982 28.916 52.4469 27.7637C53.2021 26.6113 54.4293 26.0352 56.1285 26.0352C57.7561 26.0352 58.9475 26.6243 59.7027 27.8027C60.4579 28.9811 60.8355 30.752 60.8355 33.1152ZM58.0816 33.1152C58.0816 31.8783 58.0263 30.9017 57.9156 30.1855C57.8049 29.4629 57.6064 28.9486 57.3199 28.6426C57.0335 28.3366 56.6298 28.1836 56.109 28.1836C55.5556 28.1836 55.1292 28.3398 54.8297 28.6523C54.5367 28.9583 54.3349 29.4727 54.2242 30.1953C54.1201 30.9115 54.068 31.8848 54.068 33.1152C54.068 34.3457 54.1233 35.3223 54.234 36.0449C54.3512 36.7611 54.553 37.2721 54.8395 37.5781C55.1324 37.8841 55.5426 38.0371 56.0699 38.0371C56.8512 38.0371 57.3818 37.6595 57.6617 36.9043C57.9417 36.1491 58.0816 34.8861 58.0816 33.1152ZM71.3879 37.7441V40H61.759V38.0957C61.9999 37.5684 62.3059 37.054 62.677 36.5527C63.048 36.0449 63.4908 35.5371 64.0051 35.0293C64.5259 34.515 65.1184 33.9876 65.7824 33.4473C66.2642 33.0566 66.6743 32.7018 67.0129 32.3828C67.3514 32.0573 67.6151 31.7676 67.8039 31.5137C67.9992 31.2598 68.1457 31.0091 68.2434 30.7617C68.341 30.5078 68.3898 30.2604 68.3898 30.0195C68.3898 29.4206 68.2368 28.9714 67.9309 28.6719C67.6314 28.3724 67.1822 28.2227 66.5832 28.2227C65.9973 28.2227 65.548 28.3822 65.2355 28.7012C64.9296 29.0137 64.731 29.4857 64.6398 30.1172L61.8762 29.9609C62.0324 28.6849 62.5077 27.7116 63.302 27.041C64.1027 26.3704 65.19 26.0352 66.5637 26.0352C68.048 26.0352 69.1874 26.3737 69.9816 27.0508C70.7759 27.7279 71.173 28.6784 71.173 29.9023C71.173 30.5924 71.0298 31.2109 70.7434 31.7578C70.4569 32.3047 70.0923 32.8092 69.6496 33.2715C69.285 33.6686 68.8716 34.0462 68.4094 34.4043C67.9536 34.7624 67.5109 35.1107 67.0812 35.4492C66.6255 35.8138 66.2089 36.1816 65.8312 36.5527C65.4602 36.9238 65.1835 37.321 65.0012 37.7441H71.3879ZM81.9988 35.498C81.9988 36.9629 81.5887 38.112 80.7684 38.9453C79.948 39.7786 78.8152 40.1953 77.3699 40.1953C75.7488 40.1953 74.5021 39.6289 73.6297 38.4961C72.7638 37.3568 72.3309 35.6706 72.3309 33.4375C72.3309 30.9831 72.7703 29.1374 73.6492 27.9004C74.5346 26.6569 75.7977 26.0352 77.4383 26.0352C78.6036 26.0352 79.5216 26.2923 80.1922 26.8066C80.8693 27.321 81.3478 28.1185 81.6277 29.1992L79.0398 29.5605C78.799 28.6556 78.2456 28.2031 77.3797 28.2031C76.644 28.2031 76.0646 28.571 75.6414 29.3066C75.2247 30.0423 75.0164 31.1589 75.0164 32.6562C75.3094 32.168 75.7163 31.7936 76.2371 31.5332C76.7579 31.2728 77.3471 31.1426 78.0047 31.1426C79.2352 31.1426 80.2085 31.5332 80.9246 32.3145C81.6408 33.0957 81.9988 34.1569 81.9988 35.498ZM79.2449 35.5762C79.2449 34.7949 79.0626 34.1992 78.698 33.7891C78.34 33.3724 77.8452 33.1641 77.2137 33.1641C76.6082 33.1641 76.1232 33.3594 75.7586 33.75C75.394 34.1341 75.2117 34.6452 75.2117 35.2832C75.2117 35.8171 75.2964 36.2923 75.4656 36.709C75.6414 37.1257 75.8855 37.4544 76.198 37.6953C76.5105 37.9362 76.8719 38.0566 77.282 38.0566C77.9005 38.0566 78.3823 37.8385 78.7273 37.4023C79.0724 36.9596 79.2449 36.3509 79.2449 35.5762Z" fill="#0D1B2A"/>
</svg>
